<?xml version="1.0" standalone="no"?>
<!DOCTYPE svg PUBLIC "-//W3C//DTD SVG 20010904//EN"
 "http://www.w3.org/TR/2001/REC-SVG-20010904/DTD/svg10.dtd">
<svg version="1.0" xmlns="http://www.w3.org/2000/svg"
 width="850.000000pt" height="315.000000pt" viewBox="0 0 850.000000 315.000000"
 preserveAspectRatio="xMidYMid meet">
<metadata>
Created by potrace 1.11, written by Peter Selinger 2001-2013
</metadata>
<g transform="translate(0.000000,315.000000) scale(0.100000,-0.100000)"
fill="#000000" stroke="none">
<path d="M0 2986 l0 -164 128 -116 c70 -64 132 -126 138 -137 10 -18 12 -16
18 21 3 22 10 40 14 40 4 0 22 -25 40 -56 l34 -55 52 88 c58 98 96 153 107
153 4 0 10 -11 13 -25 4 -14 16 -50 27 -80 l20 -53 77 47 c42 27 101 60 130
75 l52 26 0 -64 c0 -35 3 -77 6 -93 l6 -29 91 13 c51 7 110 15 132 18 l40 6
-275 274 -275 275 -288 0 -287 0 0 -164z"/>
<path d="M5341 3089 c-17 -34 -31 -69 -31 -78 0 -14 -2 -14 -10 -1 -8 12 -10
11 -10 -7 0 -12 7 -29 16 -37 14 -15 13 -16 -6 -16 -22 0 -22 3 -16 78 4 59 3
71 -5 52 -6 -14 -11 -49 -11 -77 -1 -58 -1 -58 -29 -43 -23 13 -24 8 -4 -30
l15 -30 -46 7 -47 6 34 -64 c19 -35 34 -73 34 -86 1 -12 -1 -21 -2 -19 -4 3
-83 -74 -83 -80 0 -2 21 -9 46 -15 l46 -12 -7 -55 c-4 -31 -11 -66 -16 -79
-10 -26 -1 -29 27 -8 30 23 37 18 30 -22 -6 -35 -5 -37 8 -19 14 17 16 17 22
3 3 -9 4 -37 2 -62 -2 -25 -1 -45 2 -45 3 0 17 10 32 23 l28 22 -15 55 c-18
66 -18 73 -4 65 6 -4 9 0 7 8 -3 17 -2 17 38 17 19 0 28 -7 35 -30 12 -33 26
-39 36 -14 3 8 12 13 19 10 15 -6 18 3 6 19 -9 13 -102 45 -102 35 0 -4 -11
-5 -25 -2 -26 4 -35 22 -12 22 9 0 9 2 0 8 -14 9 -4 93 22 178 8 27 16 65 16
84 2 30 3 31 6 8 6 -41 23 -34 23 10 0 27 3 33 10 22 9 -13 10 -13 10 0 0 13
1 13 10 0 13 -20 12 -33 -2 -24 -6 4 -8 3 -5 -4 4 -5 16 -8 27 -5 14 4 33 -7
62 -33 47 -42 134 -151 148 -186 9 -23 9 -23 9 2 0 14 -4 48 -9 75 -4 28 -7
51 -5 53 4 5 95 -108 95 -118 0 -4 -30 -23 -66 -41 -36 -19 -71 -40 -77 -48
-10 -12 -9 -12 11 -2 19 10 22 9 22 -5 0 -14 3 -13 18 4 9 11 27 23 39 27 18
5 22 1 25 -22 4 -35 41 -40 46 -6 3 17 -1 20 -17 16 -12 -3 -21 -1 -21 6 0 6
16 11 35 11 39 0 39 -1 25 34 -5 14 -6 28 -1 30 8 5 9 1 14 -47 4 -30 27 -62
27 -37 0 9 3 10 9 5 6 -6 13 -44 17 -86 6 -71 5 -79 -19 -114 -14 -21 -24 -42
-21 -47 3 -5 2 -8 -3 -6 -4 1 -28 -18 -53 -41 -79 -75 -145 -96 -213 -66 -13
5 -11 0 7 -19 34 -33 57 -33 134 4 35 17 68 27 73 24 5 -3 8 -1 7 5 -2 5 6 17
17 26 11 9 3 7 -18 -5 -21 -12 -40 -21 -42 -19 -2 2 16 21 40 41 31 28 42 33
41 20 -2 -23 29 -17 76 16 26 19 36 32 32 45 -6 18 10 24 21 8 5 -9 45 -12 45
-4 0 2 -7 20 -15 40 -8 19 -15 37 -15 38 0 1 23 5 50 9 28 4 50 9 50 12 0 2
-6 15 -14 27 -26 41 -29 67 -9 67 10 0 24 4 32 9 12 7 10 14 -9 38 l-22 28 33
3 c59 5 62 9 36 44 -14 18 -32 48 -42 67 -16 32 -16 35 0 43 26 15 85 69 85
78 0 5 -10 12 -22 16 -13 4 -47 20 -77 37 l-54 31 39 13 c59 21 60 30 3 36
-28 4 -54 8 -56 11 -2 2 5 31 17 65 27 80 25 93 -6 54 -14 -18 -34 -33 -45
-33 -11 0 -17 5 -14 10 3 6 1 10 -4 10 -6 0 -11 -4 -11 -8 0 -5 -20 -6 -44 -2
-24 3 -54 2 -67 -2 l-24 -9 22 20 c15 15 37 21 70 22 l48 2 -50 7 c-45 7 -53
5 -76 -17 -20 -18 -29 -21 -34 -12 -5 8 -4 10 3 5 7 -4 12 -2 12 3 0 14 -15
14 -43 0 -21 -10 -21 -9 2 10 l23 21 -41 0 c-23 0 -41 -4 -41 -9 0 -5 -7 -11
-15 -15 -8 -3 -14 -1 -12 3 3 14 -14 11 -56 -8 -20 -9 -35 -20 -32 -23 4 -3
-2 -5 -12 -4 -11 0 -17 -5 -15 -14 3 -11 -2 -10 -17 5 -18 15 -24 16 -34 5
-10 -10 -9 -11 2 -5 9 5 12 4 7 -3 -4 -6 -14 -8 -24 -5 -15 6 -16 5 -2 -13 11
-14 11 -16 0 -7 -21 19 -22 54 -3 77 10 12 3 8 -15 -8 -22 -20 -32 -25 -33
-15 0 8 -5 1 -10 -16 -5 -16 -7 -34 -5 -40 2 -6 -14 -10 -35 -11 -22 0 -39 2
-39 5 0 3 12 26 25 50 14 24 24 46 21 48 -2 2 -18 -24 -35 -58z"/>
<path d="M3090 2998 c-19 -33 -36 -54 -39 -47 -5 16 -56 69 -66 69 -4 0 -2 -6
4 -14 9 -11 5 -16 -18 -26 -16 -6 -40 -9 -53 -5 -15 4 -19 3 -10 -3 21 -14
-62 -44 -106 -38 l-37 5 37 -10 c32 -9 48 -7 123 21 48 18 89 30 91 27 16 -16
-39 -59 -91 -70 -15 -3 -13 -5 8 -6 30 -1 37 -25 11 -35 -9 -3 -53 -4 -98 -2
-55 4 -67 3 -39 -3 24 -4 46 -11 50 -16 5 -4 1 -6 -8 -3 -20 8 -79 -38 -78
-60 0 -13 3 -11 11 6 9 19 19 22 64 22 29 0 75 5 103 12 59 13 76 4 43 -22
-21 -17 -71 -31 -163 -45 -53 -8 -91 -47 -87 -88 l3 -32 64 4 c66 3 111 -11
111 -36 0 -9 -18 -13 -68 -13 -50 0 -85 -7 -128 -25 -71 -29 -61 -33 14 -5 65
25 80 25 59 2 -10 -10 -17 -21 -17 -24 0 -11 32 -2 40 12 4 7 23 15 41 17 32
3 32 3 14 -17 -18 -20 -18 -21 1 -14 10 3 -6 -10 -36 -29 -30 -20 -49 -37 -42
-37 7 0 10 -4 7 -10 -3 -5 1 -10 9 -10 19 0 20 -11 4 -29 -11 -11 -9 -11 11
-1 23 12 23 11 17 -16 -6 -24 -5 -26 8 -15 33 27 14 -11 -54 -113 -38 -58 -78
-107 -89 -111 -28 -9 -72 -108 -88 -194 -23 -133 -31 -165 -43 -169 -7 -3 -4
-9 7 -18 10 -7 13 -14 6 -14 -7 0 -10 -7 -7 -15 3 -8 -2 -50 -12 -94 -18 -78
-19 -80 -54 -90 l-35 -11 34 5 c31 5 33 3 27 -18 -4 -12 -8 -32 -10 -43 -5
-32 -46 -95 -61 -92 -15 4 -284 230 -285 240 0 3 17 12 37 19 39 13 113 81
113 104 0 11 14 15 53 17 49 1 50 2 10 5 -33 3 -47 11 -63 33 -14 20 -33 31
-58 36 -22 4 -53 21 -77 43 l-40 36 34 -37 35 -38 -74 0 c-72 0 -75 1 -111 36
-38 38 -47 29 -16 -16 9 -13 18 -38 18 -55 1 -23 3 -25 6 -7 4 19 10 22 56 22
29 0 70 3 91 7 23 3 37 2 34 -3 -4 -5 13 -7 37 -6 53 5 72 -18 54 -65 -23 -62
-84 -102 -182 -123 -56 -11 -177 -6 -177 8 0 3 12 20 27 36 l28 31 -35 -32
c-19 -18 -62 -44 -95 -60 -53 -24 -74 -28 -175 -31 -92 -2 -129 1 -185 17 -39
11 -71 16 -73 10 -2 -5 -9 -9 -16 -9 -7 0 -30 -13 -52 -30 l-41 -29 -17 55
c-10 31 -19 54 -21 52 -2 -2 7 -40 22 -83 26 -82 40 -204 29 -250 -13 -51
-106 -135 -174 -155 -17 -5 -20 -9 -9 -9 45 -2 149 73 177 130 11 21 20 54 20
74 l0 35 53 0 c30 0 70 -9 95 -20 54 -24 55 -17 1 10 -23 12 -63 22 -93 23
l-52 2 -12 60 c-10 55 -9 61 9 81 11 12 38 29 59 39 38 17 42 17 102 0 118
-35 258 -24 381 30 14 6 17 2 17 -26 -1 -80 -49 -139 -157 -193 -88 -44 -119
-78 -127 -138 -11 -80 -39 -133 -106 -196 l-60 -58 6 -174 c7 -194 -1 -260
-41 -349 -42 -92 -101 -141 -168 -141 -38 0 -74 28 -83 66 -8 31 -1 109 20
219 9 44 15 109 14 145 -1 48 -2 53 -5 20 -4 -64 -20 -182 -37 -273 -25 -138
9 -190 120 -185 35 1 66 0 70 -4 10 -11 54 2 94 28 40 26 96 84 92 96 -1 4 2
8 7 8 5 0 24 -26 41 -57 18 -32 41 -67 51 -79 28 -30 15 -54 -28 -54 -27 0
-43 -8 -67 -33 -29 -31 -41 -35 -173 -60 -249 -48 -471 -124 -558 -191 -36
-28 -4 -17 56 20 76 46 183 85 339 122 204 49 180 50 321 -17 68 -32 152 -69
187 -82 34 -13 62 -27 62 -30 0 -3 -10 -11 -22 -18 -23 -11 -23 -11 2 -5 34 9
61 9 85 0 19 -7 19 -7 1 8 -20 16 -31 92 -15 102 6 3 66 -13 135 -37 119 -40
124 -43 108 -61 -16 -17 -15 -18 25 -18 38 0 42 2 36 20 -6 18 1 24 25 22 3 0
4 17 2 39 -3 25 0 39 7 39 7 0 15 8 19 18 4 10 28 37 53 60 47 42 73 56 48 25
-8 -9 12 2 44 26 64 47 83 49 43 6 -15 -16 -26 -32 -26 -38 0 -5 9 2 21 17 40
51 152 86 165 52 5 -12 14 -10 50 10 46 26 55 23 28 -7 -15 -16 -14 -17 4 -12
14 3 24 -2 32 -18 11 -19 9 -25 -11 -41 -20 -15 -21 -17 -4 -11 17 6 18 5 7
-9 -11 -14 -10 -17 8 -23 24 -8 21 -31 -3 -29 -9 1 -14 -3 -11 -8 3 -5 12 -7
20 -4 42 16 102 -51 90 -100 -4 -15 -2 -26 6 -29 7 -3 253 -4 546 -3 l533 3
-70 140 c-39 77 -98 176 -131 220 -63 84 -155 175 -177 175 -18 0 -70 -74 -78
-110 -4 -17 -11 -33 -17 -36 -19 -12 1 47 38 113 21 38 42 63 52 64 9 0 47 3
84 7 37 5 64 4 62 0 -3 -4 -1 -8 4 -8 5 0 12 -11 14 -25 3 -14 1 -25 -4 -25
-5 0 -4 -10 3 -21 8 -15 8 -19 0 -15 -6 4 -11 2 -11 -3 0 -6 -5 -11 -11 -11
-5 0 -8 4 -5 8 3 5 -1 9 -9 9 -12 0 -12 -4 1 -26 16 -26 71 -95 61 -76 -3 6
-2 17 3 25 5 8 5 21 0 30 -6 12 -5 17 6 17 7 0 14 -5 14 -11 0 -6 4 -6 11 1
11 11 49 6 49 -6 0 -4 7 -16 16 -27 14 -18 15 -17 11 13 -2 18 -2 33 0 33 1 0
14 -21 27 -47 30 -58 33 -52 6 14 -15 35 -16 43 -4 28 24 -31 69 -124 89 -185
10 -30 35 -97 56 -148 21 -50 34 -92 29 -92 -6 0 -10 -7 -10 -15 0 -9 9 -15
24 -15 24 0 24 0 -24 107 -26 60 -64 158 -83 218 -36 111 -70 275 -57 275 3 0
26 -21 50 -48 53 -58 37 -29 -34 61 -48 62 -57 81 -95 212 -54 187 -61 262
-32 353 26 83 74 143 133 167 37 14 48 15 81 4 35 -12 37 -14 21 -26 -20 -14
-20 -14 19 -31 16 -7 25 -17 21 -23 -4 -8 1 -9 17 -4 13 3 19 3 13 -2 -18 -13
-13 -43 7 -43 12 0 16 -5 13 -15 -4 -8 -2 -15 4 -15 12 0 19 -29 27 -107 3
-29 12 -73 19 -97 8 -24 12 -59 10 -78 -3 -20 10 -78 32 -148 21 -63 38 -122
39 -130 3 -17 11 -61 21 -103 3 -15 9 -27 13 -27 4 0 6 -13 5 -30 -1 -16 3
-30 9 -30 6 0 8 -2 5 -6 -3 -3 0 -25 7 -49 8 -24 11 -46 8 -49 -4 -3 -2 -6 3
-6 5 0 11 -8 12 -17 3 -30 7 -48 14 -58 3 -5 12 -54 19 -107 9 -74 10 -104 1
-123 l-12 -25 253 0 252 1 -35 29 c-41 34 -122 76 -182 95 l-43 14 88 0 c68 1
87 4 87 15 0 20 53 56 103 71 73 21 140 -5 171 -66 13 -26 12 -30 -21 -66 -19
-21 -41 -50 -49 -65 l-15 -28 176 0 175 0 10 25 c12 32 28 32 36 0 l6 -25 303
0 304 0 7 23 c7 21 7 21 15 2 7 -18 8 -18 8 -2 1 26 132 149 153 144 9 -3 29
4 45 14 15 10 24 19 19 19 -6 0 16 16 47 34 52 32 63 34 109 29 l52 -6 -36 64
c-19 35 -78 129 -130 209 -145 223 -170 264 -261 425 -79 139 -137 260 -137
285 0 5 7 10 15 10 22 0 65 45 65 68 0 17 -4 18 -39 9 -33 -9 -56 -6 -147 18
-158 41 -326 101 -426 153 -73 37 -88 49 -88 68 0 28 -2 28 -63 10 l-47 -14 6
127 c6 102 4 132 -8 156 -8 17 -18 51 -21 78 -7 46 -6 47 15 36 35 -19 100
-84 148 -148 25 -33 50 -59 55 -57 6 2 21 -5 35 -14 27 -19 246 -130 255 -130
4 0 3 4 0 10 -11 17 14 49 42 53 l28 4 -28 2 c-26 1 -28 3 -23 34 3 19 -2 11
-12 -20 -10 -29 -20 -55 -24 -58 -10 -11 -68 24 -68 41 0 22 27 48 33 31 3 -7
6 -5 6 6 1 9 6 17 13 17 6 0 3 6 -8 14 -17 14 -15 14 29 10 45 -4 52 0 48 28
0 4 3 18 8 31 9 24 8 25 -42 29 -84 8 -164 44 -224 102 -44 44 -54 49 -59 34
-6 -19 -29 -24 -39 -8 -8 13 21 67 42 79 10 6 14 10 8 11 -5 0 -15 -4 -22 -8
-14 -9 -83 -151 -83 -171 0 -11 -4 -10 -14 4 -12 17 -12 25 0 54 19 45 18 47
-8 25 -20 -18 -21 -18 -15 -1 4 10 3 16 -3 12 -5 -3 -16 7 -23 22 -22 42 -68
175 -63 180 2 3 26 -5 52 -16 26 -12 49 -20 51 -17 6 5 -73 102 -99 121 -22
16 -21 17 35 13 31 -3 57 -2 57 1 0 10 -68 61 -95 71 -15 6 -39 10 -55 10
l-28 0 16 33 c18 36 21 116 8 222 l-9 70 -12 -65 c-7 -36 -20 -81 -28 -100
l-15 -35 -1 43 c-1 24 -10 80 -22 125 -14 54 -19 101 -16 136 3 49 3 52 -11
35 -19 -25 -65 -125 -65 -141 0 -9 -8 -11 -21 -7 -20 6 -20 5 -2 -8 13 -10 16
-21 12 -36 -7 -20 -12 -17 -62 37 -49 54 -61 61 -141 86 -120 37 -163 53 -200
75 -33 20 -45 13 -18 -10 8 -7 12 -16 9 -21 -3 -5 -1 -9 4 -9 6 0 29 -22 52
-50 23 -27 37 -50 31 -50 -17 0 -101 89 -101 106 0 8 -8 14 -17 14 -13 0 -11
-6 10 -28 15 -15 27 -33 27 -39 0 -11 70 -63 86 -63 5 0 15 -9 21 -19 9 -14
-11 -7 -75 26 -131 69 -178 101 -224 152 l-41 46 37 -72 c21 -39 53 -89 71
-111 l34 -39 -42 -5 c-26 -3 -63 -20 -96 -42 -30 -20 -81 -44 -115 -54 l-60
-16 35 -9 c18 -4 59 -14 89 -21 l55 -13 -50 -8 c-27 -5 -84 -9 -127 -9 -42 -1
-71 -4 -65 -8 7 -4 54 -17 104 -30 l93 -22 -57 -50 c-33 -30 -73 -56 -97 -63
-23 -6 -33 -11 -24 -12 39 -2 27 -29 -39 -84 -12 -11 -38 -25 -59 -32 l-37
-13 57 -16 c45 -13 55 -20 47 -30 -6 -7 -9 -22 -6 -34 3 -18 -3 -24 -36 -34
l-41 -12 26 -13 c23 -12 25 -17 15 -35 -8 -14 -8 -18 0 -14 7 5 9 1 5 -8 -3
-9 -9 -16 -13 -16 -4 0 -8 -6 -9 -12 -3 -36 -12 -50 -59 -87 -55 -43 -134
-132 -172 -194 -27 -43 -34 -47 -20 -11 5 15 8 29 6 31 -6 5 -29 -52 -26 -63
2 -5 -1 -19 -5 -32 -5 -16 -13 -21 -25 -17 -10 3 -24 -1 -31 -10 -7 -8 -18
-15 -26 -15 -7 0 -38 -25 -69 -55 -32 -30 -64 -55 -72 -55 -10 0 -13 -6 -9
-16 3 -8 2 -13 -3 -10 -5 3 -9 32 -10 65 0 47 3 60 17 66 16 6 16 7 0 16 -14
8 -15 15 -6 45 6 24 6 39 0 43 -18 11 -132 194 -172 276 -34 70 -100 236 -100
253 0 19 23 -26 65 -126 26 -62 49 -111 52 -108 3 2 0 13 -6 24 -6 12 -11 24
-11 28 0 7 71 0 105 -10 11 -3 8 -1 -6 6 -14 7 -41 31 -60 53 -18 22 -23 31
-10 20 13 -11 24 -20 25 -19 40 22 52 28 59 26 5 -1 6 2 3 7 -3 5 1 15 10 22
17 14 78 99 71 99 -3 0 -24 -25 -48 -56 -49 -64 -81 -81 -113 -61 -45 30 -172
157 -196 196 -14 22 -30 41 -37 41 -13 0 -43 38 -43 55 0 5 11 -3 25 -20 l25
-30 -10 28 c-19 53 -15 57 48 57 40 0 53 -3 42 -10 -18 -12 -19 -11 50 -16 67
-4 78 2 86 46 5 24 4 31 -4 26 -7 -4 -26 16 -51 54 l-38 62 0 -54 c0 -33 2
-41 4 -19 l4 34 25 -36 c28 -42 31 -55 7 -36 -15 13 -15 12 -5 -8 15 -28 34
-40 25 -16 -5 14 -3 15 6 7 20 -19 9 -49 -18 -49 -19 0 -33 16 -72 85 -27 47
-49 80 -49 74 0 -14 28 -72 52 -106 25 -36 23 -41 -10 -24 -21 11 -33 29 -47
75 -11 33 -23 57 -26 53 -4 -4 -16 -37 -29 -74 -22 -70 -37 -91 -26 -38 8 40
-1 38 -13 -2 l-9 -33 -1 41 c-1 29 9 60 29 99 31 58 36 75 23 75 -5 0 -23 -34
-42 -75 -18 -42 -37 -78 -41 -80 -12 -8 16 91 33 115 15 21 12 60 -4 60 -17 0
-59 51 -52 63 4 7 8 16 8 21 0 10 7 14 82 46 50 22 69 42 57 61 -3 5 -12 9
-20 9 -9 0 -14 7 -12 18 2 9 12 16 22 15 11 0 15 4 12 12 -3 9 0 12 10 8 9 -3
14 1 14 13 1 18 1 18 15 0 8 -11 17 -18 19 -15 15 17 35 70 30 82 -3 9 2 30
11 47 29 56 11 40 -25 -22z m1289 -1101 c25 -74 46 -110 34 -57 -4 19 -8 76
-8 125 0 73 5 97 22 130 12 22 22 35 23 28 0 -6 25 -49 56 -94 60 -88 110
-185 119 -234 5 -26 2 -32 -25 -47 l-30 -17 6 27 c4 15 11 35 16 45 5 9 5 17
0 17 -10 0 -42 -65 -42 -85 0 -23 18 -27 45 -9 20 13 25 13 25 3 1 -8 6 -4 13
9 7 12 39 38 70 58 54 33 60 35 88 23 17 -6 35 -22 39 -33 7 -16 9 -17 9 -4 1
9 -11 26 -26 38 -20 16 -24 23 -15 32 26 26 10 27 -28 2 -22 -15 -43 -24 -46
-21 -9 9 7 68 17 62 4 -3 11 6 15 21 5 19 9 22 15 12 6 -8 9 -9 9 -1 0 27 44
-4 75 -53 37 -58 38 -65 8 -174 -43 -153 -121 -237 -232 -249 -31 -3 -84 -5
-119 -4 -70 2 -76 -11 -10 -20 41 -6 81 0 137 18 16 5 21 4 17 -4 -4 -6 -31
-18 -59 -26 -47 -14 -58 -14 -104 0 -91 27 -182 75 -214 113 -41 50 -115 205
-128 270 -18 87 -11 113 8 32 18 -77 58 -177 66 -168 3 3 -2 25 -11 49 -9 24
-18 85 -20 134 l-3 90 14 -70 c7 -38 17 -82 20 -98 l7 -27 17 32 c18 37 46 45
76 23 16 -13 17 -17 6 -24 -17 -11 -7 -41 13 -41 8 0 16 10 18 23 4 21 6 20
41 -16 20 -21 37 -34 37 -28 0 8 7 7 23 -1 33 -19 37 -28 37 -85 0 -42 4 -53
19 -58 22 -7 83 15 63 22 -8 3 -19 0 -25 -6 -6 -6 -14 -11 -18 -11 -13 0 -28
56 -33 129 -3 41 -10 79 -16 85 -7 7 -10 2 -10 -16 0 -15 -5 -30 -10 -33 -13
-8 -109 45 -174 96 -27 22 -52 37 -55 33 -3 -3 3 -13 15 -23 l21 -17 -25 -18
-25 -19 5 84 c7 94 31 169 80 244 l32 50 8 -103 c4 -59 15 -129 27 -165z
m-2384 -317 c37 -74 74 -194 91 -297 14 -92 21 -321 10 -378 -3 -16 3 -3 15
30 49 145 45 293 -10 412 -17 36 -29 68 -27 70 9 10 100 -125 137 -202 21 -44
39 -74 39 -67 0 7 -6 25 -14 40 -7 15 -17 37 -21 50 -7 23 -6 23 22 9 41 -22
63 -50 69 -88 9 -52 -31 -203 -79 -299 l-41 -85 -8 80 c-19 189 -13 190 -77
-6 -76 -228 -88 -251 -154 -289 -28 -16 -55 -30 -58 -30 -4 0 13 62 37 138 42
131 67 239 77 330 3 23 4 42 2 42 -1 0 -35 -65 -75 -145 -40 -80 -76 -145 -79
-145 -9 0 6 178 25 290 9 52 20 145 24 205 5 61 16 135 24 165 9 30 19 94 23
142 3 48 10 85 15 82 4 -3 20 -27 33 -54z m2986 -30 c0 -19 5 -46 9 -60 7 -23
8 -22 9 10 2 67 21 8 21 -67 l0 -72 25 24 c19 19 35 25 70 25 43 0 46 -1 39
-22 -3 -13 -13 -31 -22 -40 -13 -16 -12 -18 9 -28 13 -6 51 -28 84 -49 33 -22
71 -40 85 -40 14 -1 43 -13 64 -27 l39 -27 -33 -13 c-17 -8 -49 -27 -70 -44
-30 -23 -48 -30 -83 -30 -26 0 -69 -5 -97 -11 -28 -6 -54 -9 -56 -6 -5 5 91
81 142 114 22 14 -96 -16 -206 -52 -60 -20 -80 -32 -97 -58 -13 -18 -23 -36
-23 -39 0 -3 56 -9 125 -13 69 -4 125 -8 125 -10 0 -5 -39 -193 -46 -219 -6
-24 -3 -26 23 -26 27 0 29 -2 25 -32 -2 -19 10 -69 27 -118 27 -75 30 -95 27
-175 -4 -106 -29 -174 -82 -226 -40 -38 -41 -36 -14 22 24 53 26 136 5 186 -9
20 -38 60 -65 89 -28 29 -50 61 -50 71 0 9 -19 -16 -43 -57 -49 -87 -103 -164
-92 -135 34 99 56 255 37 255 -6 0 -9 -7 -6 -15 4 -9 3 -41 -1 -73 -6 -49 -13
-62 -45 -94 -40 -37 -114 -70 -185 -82 -35 -6 -29 -1 40 32 105 51 159 99 173
152 10 39 9 40 -15 40 -15 0 -44 -17 -75 -44 -27 -23 -68 -53 -91 -65 l-42
-22 29 23 c97 77 146 120 146 131 0 7 -5 5 -10 -4 -5 -9 -21 -24 -36 -33 -25
-17 -25 -17 -15 3 17 30 14 31 -30 16 -60 -22 -66 -19 -34 15 16 17 30 41 30
55 2 27 21 55 40 55 15 0 137 126 155 160 l13 25 -22 -20 c-13 -11 -28 -20
-34 -21 -7 0 -22 -2 -34 -2 -18 -2 -25 -13 -39 -62 -9 -33 -20 -63 -24 -65
-11 -7 0 71 15 118 7 20 10 37 8 37 -3 0 -22 -13 -43 -30 -23 -18 -50 -30 -68
-30 -16 0 -48 -7 -71 -15 -22 -8 -41 -10 -41 -5 0 11 49 46 81 59 46 18 -12
12 -91 -10 -94 -25 -114 -39 -141 -91 -17 -33 -19 -46 -10 -60 9 -14 7 -19 -8
-27 -16 -9 -20 -6 -25 24 -4 21 -1 55 8 84 12 43 31 66 123 155 59 58 117 106
128 107 16 1 17 2 3 6 -21 5 -25 18 -34 106 -4 44 -3 67 4 67 6 0 13 -10 15
-22 4 -22 4 -21 5 2 1 14 -7 45 -18 69 -11 24 -20 51 -19 60 0 9 6 2 12 -15 7
-17 17 -29 24 -27 12 4 73 -23 73 -34 0 -13 -42 -73 -58 -82 -12 -7 -14 -15
-6 -42 l10 -34 39 59 c22 32 46 64 52 71 11 11 6 18 -22 35 -46 28 -45 48 1
21 35 -21 54 -27 41 -14 -4 3 -2 11 3 18 5 6 25 74 44 149 45 180 61 197 52
56 -6 -102 -6 -104 10 -70 9 19 29 63 45 96 16 34 29 70 30 80 1 32 28 -37 30
-76z m-815 -91 c49 -33 110 -78 136 -100 27 -23 53 -37 60 -33 7 4 8 3 4 -5
-4 -7 15 -37 46 -74 66 -76 107 -130 137 -180 l23 -38 -23 -26 c-37 -40 -152
-133 -158 -128 -2 3 9 19 25 37 27 29 25 29 -33 -11 l-62 -41 38 83 c28 62 38
95 36 125 -2 45 -60 171 -82 179 -7 3 -33 33 -57 67 -48 67 -179 196 -199 196
-6 0 2 -10 18 -22 67 -48 162 -155 198 -225 45 -86 82 -183 91 -238 6 -35 3
-45 -23 -75 -16 -19 -29 -28 -29 -20 1 8 0 38 -2 65 l-3 50 -7 -55 c-7 -66
-16 -50 -26 45 l-7 70 -15 -47 c-9 -27 -19 -48 -22 -48 -4 0 -13 19 -20 43
-39 132 -131 247 -238 297 -58 28 -62 32 -47 44 14 10 15 15 5 21 -9 6 -11 4
-5 -5 6 -9 4 -11 -4 -6 -17 11 16 46 43 46 25 0 95 -53 150 -113 l38 -42 -31
42 c-31 41 -77 85 -119 113 -12 8 -19 20 -14 25 9 12 63 43 78 44 5 1 50 -26
100 -60z m-738 -88 c-1 -33 20 -92 36 -103 7 -5 7 -8 -2 -8 -10 0 -10 -5 -2
-20 9 -16 8 -18 -5 -13 -14 5 -15 0 -10 -31 5 -24 3 -36 -4 -36 -6 0 -11 4
-11 9 0 5 -9 7 -20 4 -15 -4 -20 0 -20 17 0 16 -4 20 -19 15 -20 -6 -23 8 -8
31 4 7 -1 14 -13 17 -17 4 -20 14 -20 61 0 41 4 56 14 56 9 0 16 -17 20 -45
10 -64 21 -56 19 12 -2 51 -1 53 6 20 10 -48 21 -59 21 -19 0 29 8 62 15 62 2
0 3 -13 3 -29z m1024 -26 c65 -23 114 -52 104 -62 -2 -3 -21 4 -43 15 -21 11
-56 27 -78 36 -36 14 -38 14 -20 0 11 -9 47 -29 80 -46 85 -43 95 -54 94 -102
0 -23 -4 -49 -8 -59 -6 -17 -9 -16 -41 5 -46 31 -169 179 -163 195 3 7 0 20
-7 28 -18 21 -2 19 82 -10z m1065 -20 c204 -59 263 -88 279 -137 12 -35 12
-36 -14 -41 -19 -4 -34 1 -52 17 -14 12 -33 28 -42 35 -15 11 -270 102 -275
97 -1 -1 16 -23 38 -49 52 -60 32 -62 -68 -7 -57 32 -73 46 -73 63 0 24 26 67
40 67 5 0 80 -20 167 -45z m-2064 -266 c35 -46 39 -65 7 -36 -8 6 -6 2 5 -11
l19 -23 -29 8 c-17 4 -79 7 -140 7 -90 -2 -124 -7 -189 -28 -60 -21 -81 -24
-92 -15 -23 19 -17 24 49 47 100 34 166 44 264 40 59 -2 89 1 85 7 -3 6 -15
26 -27 45 -12 19 -25 46 -29 60 -5 17 0 13 16 -14 13 -21 40 -60 61 -87z
m2105 37 c87 -44 128 -55 232 -64 66 -5 85 -10 85 -22 0 -8 8 -22 17 -31 21
-20 65 -113 74 -157 7 -36 -10 -44 -31 -15 -12 16 -12 14 -8 -10 4 -22 2 -27
-15 -27 -17 0 -22 7 -25 43 -3 40 -4 40 -5 -10 -2 -40 -6 -53 -17 -53 -8 0
-15 3 -16 8 -18 157 -25 189 -40 183 -14 -5 -14 -14 -4 -77 7 -38 16 -80 19
-92 5 -16 3 -24 -9 -28 -22 -9 -25 -4 -46 68 -19 63 -19 63 -14 16 2 -27 7
-59 11 -73 5 -20 3 -25 -14 -25 -17 0 -22 10 -30 63 l-9 62 -2 -64 c-1 -58 -3
-63 -21 -58 -11 3 -20 1 -20 -4 0 -5 9 -9 20 -9 17 0 20 -7 20 -42 0 -24 3
-60 6 -80 l7 -38 -37 0 c-28 0 -36 4 -36 18 0 14 -9 17 -59 17 l-59 0 19 -24
c11 -13 19 -37 19 -52 0 -33 -31 -69 -57 -68 -15 0 -14 2 4 11 12 6 27 23 33
39 10 24 10 33 -4 54 -9 14 -20 25 -23 25 -4 0 -2 -5 5 -12 21 -21 14 -66 -12
-83 -13 -8 -29 -13 -37 -11 -8 2 -27 7 -42 10 -45 10 -54 72 -13 98 6 4 -3 10
-22 14 -18 4 -35 11 -38 16 -4 6 2 7 17 2 13 -4 50 -8 81 -8 56 -1 57 0 36 15
-12 10 -36 17 -54 17 -17 0 -41 5 -52 11 -20 11 -21 17 -16 134 3 67 10 150
16 184 5 35 8 69 5 77 -3 8 -2 27 2 43 7 27 11 29 84 42 4 0 38 -14 75 -33z
m-2123 -116 c-3 -4 15 -15 39 -24 41 -16 47 -22 71 -84 47 -114 57 -152 40
-152 -8 0 -15 -4 -15 -9 0 -16 30 -80 40 -86 6 -4 8 -11 5 -16 -13 -20 -32 -7
-46 34 -16 42 -16 42 -60 38 -24 -1 -49 -7 -56 -13 -14 -11 -17 -10 -106 58
-38 29 -88 79 -113 111 l-44 58 43 38 c23 20 56 41 72 47 35 10 136 10 130 0z
m-969 -46 c3 -13 2 -43 -4 -66 -6 -23 -8 -46 -5 -51 10 -16 24 10 31 59 l7 48
60 -59 c80 -80 152 -167 128 -157 -10 5 -53 25 -97 46 -43 21 -104 42 -136 48
l-57 11 13 51 c8 28 14 66 14 84 0 30 2 32 20 22 11 -6 23 -22 26 -36z m2864
33 c0 -13 -53 -301 -61 -329 -11 -42 -36 -51 -60 -21 -8 9 -9 14 -3 10 7 -4
10 7 10 31 0 20 11 88 24 151 19 91 29 118 49 137 22 21 41 30 41 21z m-2849
-183 c119 -36 215 -100 203 -138 -9 -28 -68 -118 -92 -139 -20 -18 -23 -18
-114 24 -100 46 -183 60 -237 41 -38 -13 -39 -4 -12 68 35 93 107 159 172 160
14 0 50 -7 80 -16z m357 -197 c51 -47 102 -122 102 -150 0 -10 -4 -16 -8 -13
-5 3 -28 -2 -53 -10 -53 -19 -181 -11 -219 14 -14 9 -45 15 -75 15 -29 0 -38
1 -20 4 17 3 38 12 47 20 23 21 118 166 118 181 0 19 54 -12 108 -61z m-618
-114 c7 -21 21 -52 32 -70 15 -25 16 -33 6 -40 -26 -16 -70 -84 -87 -136 -11
-30 -26 -68 -35 -85 -9 -17 -16 -40 -16 -52 0 -26 -5 -25 -65 9 -67 38 -155
118 -155 141 0 24 269 264 302 269 3 1 12 -16 18 -36z"/>
<path d="M1752 2838 c-15 -24 -41 -64 -55 -90 -24 -41 -52 -68 -71 -68 -2 0
-7 10 -9 23 l-4 22 -2 -23 c-1 -18 -17 -30 -83 -60 -46 -21 -127 -64 -181 -96
l-99 -58 -28 27 c-16 16 -27 32 -24 37 3 4 -2 8 -11 8 -9 0 -19 9 -22 20 -5
20 -23 28 -23 10 0 -5 -26 -51 -57 -102 -34 -55 -53 -93 -46 -95 18 -6 134
-82 165 -108 l27 -23 -62 -17 c-103 -29 -103 -29 -62 -77 19 -23 35 -45 35
-50 0 -4 -23 -8 -51 -8 -45 0 -50 2 -44 18 3 9 7 21 8 26 4 20 -37 17 -80 -4
-24 -12 -50 -19 -58 -16 -8 3 8 -37 36 -89 28 -52 48 -95 44 -95 -4 0 -31 21
-60 48 -30 26 -67 55 -84 65 l-31 18 0 -82 0 -83 -46 94 -45 95 -72 3 c-40 1
-99 7 -132 13 -77 13 -215 58 -215 70 0 5 5 9 12 9 6 0 9 2 6 5 -6 6 -135 -68
-152 -86 -6 -7 1 -5 17 4 l27 17 0 -52 c0 -31 9 -71 20 -97 11 -24 21 -55 21
-70 2 -23 2 -24 6 -3 4 22 5 22 34 5 31 -18 35 -28 19 -38 -5 -3 -10 -16 -9
-28 1 -20 2 -20 8 3 4 14 14 26 23 28 12 2 15 -2 11 -17 -13 -49 22 -96 51
-68 10 9 11 18 3 34 -6 13 -8 25 -6 27 2 2 42 -6 89 -18 78 -21 82 -23 51 -29
-22 -5 -40 -2 -50 5 -14 12 -15 11 -1 -6 14 -18 43 -18 120 0 21 4 22 4 8 -6
-10 -6 -23 -21 -29 -33 -12 -22 -12 -22 10 -3 21 19 21 19 21 0 0 -23 18 -44
38 -44 9 0 5 7 -9 19 -19 16 -22 22 -11 32 10 11 12 10 12 -4 0 -20 26 -23 34
-4 3 6 4 0 2 -16 -3 -22 -1 -25 10 -16 8 6 14 22 14 35 0 30 17 31 23 2 4 -20
4 -20 6 4 0 16 -6 31 -16 37 -16 9 -15 10 8 11 14 0 47 6 72 14 l46 14 4 -27
c4 -24 4 -23 6 5 1 25 7 34 31 44 16 7 31 10 34 9 3 -2 13 6 21 19 9 12 21 22
26 22 6 0 1 -12 -10 -26 -22 -28 -28 -50 -11 -39 6 3 10 -1 10 -9 0 -23 -15
-19 -28 7 -8 16 -11 18 -11 5 -1 -9 -4 -25 -7 -35 -5 -15 -4 -15 5 -3 18 26
27 -19 9 -50 -9 -15 -14 -39 -11 -53 4 -19 0 -27 -17 -32 -13 -4 -19 -12 -16
-20 6 -16 -18 -67 -39 -85 -8 -7 -15 -16 -15 -21 0 -11 -49 -59 -60 -59 -16 0
-11 14 8 26 23 15 106 123 100 130 -3 3 -15 -10 -26 -28 -11 -18 -37 -49 -57
-68 -34 -33 -39 -35 -113 -36 -48 -1 -89 4 -110 13 -31 13 -35 13 -47 -4 -8
-10 -15 -25 -15 -32 0 -11 -3 -12 -11 -4 -9 9 -8 18 5 37 9 15 12 26 7 26 -5
0 -14 -14 -21 -30 -9 -22 -16 -28 -25 -20 -6 5 -15 7 -18 3 -4 -3 -7 2 -8 13
0 10 -3 13 -6 7 -7 -19 -23 -15 -23 5 0 26 11 34 27 21 7 -6 13 -8 14 -3 0 5
4 1 7 -8 7 -17 8 -16 20 2 11 18 10 20 -13 20 -27 0 -70 19 -120 54 -16 12
-32 22 -34 23 -2 1 2 10 10 20 11 14 11 15 0 9 -8 -5 -17 -3 -23 5 -7 11 -9 9
-5 -7 4 -18 -1 -23 -24 -28 -40 -8 -65 -49 -50 -82 14 -32 70 -56 111 -48 17
4 41 2 53 -3 12 -6 49 -18 82 -29 33 -10 67 -21 75 -25 8 -4 24 -11 35 -15 15
-6 8 -10 -30 -15 l-50 -7 60 1 c33 1 69 -4 80 -10 11 -6 73 -14 138 -18 l117
-7 2 -66 1 -67 6 75 c7 88 16 106 76 155 34 28 46 46 50 73 23 150 35 170 124
196 73 21 92 35 131 95 36 56 41 59 151 63 63 3 81 7 110 29 60 46 74 50 124
39 52 -12 185 -69 185 -80 0 -12 -54 -31 -112 -41 l-53 -8 55 3 c31 2 76 14
102 27 l46 22 -55 45 -55 46 39 32 c21 19 46 33 55 34 10 0 23 6 30 14 11 12
16 9 31 -17 10 -18 16 -24 13 -14 -18 58 -17 63 18 103 20 21 36 33 36 25 0
-11 3 -11 15 -1 12 10 17 6 29 -22 l14 -33 -5 37 c-6 38 10 70 37 77 8 2 35 7
59 11 23 4 46 12 50 17 3 6 16 13 27 17 12 4 32 20 44 36 13 17 27 30 32 30
18 0 153 72 170 90 9 10 21 35 27 56 14 50 21 61 46 67 15 3 13 5 -8 6 -15 0
-41 -6 -57 -14 -35 -18 -35 -18 -15 28 23 55 19 85 -15 119 -16 16 -30 31 -30
34 0 2 18 13 40 24 22 11 40 23 40 25 0 3 -21 -5 -47 -18 -32 -16 -73 -26
-123 -30 -47 -3 -106 -17 -158 -36 -46 -17 -85 -31 -88 -31 -2 0 -4 10 -5 23
-1 18 -3 16 -11 -10 -10 -31 -47 -51 -68 -38 -6 4 -10 34 -11 68 -1 53 -2 57
-9 29 -4 -19 -13 -39 -20 -45 -10 -10 -11 4 -7 63 l6 75 -17 -53 c-9 -30 -20
-51 -24 -46 -4 4 -10 -1 -14 -10 -5 -13 -10 -14 -20 -5 -8 6 -37 9 -69 7 -52
-3 -56 -2 -51 17 16 56 15 66 -1 30 -26 -58 -32 -65 -54 -65 -18 0 -17 5 13
58 17 31 40 69 50 85 11 15 17 27 14 27 -3 0 -18 -19 -34 -42z m-110 -339 c2
-55 -1 -74 -13 -85 -21 -19 -29 -18 -30 4 0 10 -6 5 -14 -14 -8 -17 -26 -39
-42 -49 -15 -10 -40 -29 -56 -43 l-28 -26 -67 67 c-37 38 -60 67 -52 65 9 -2
14 4 14 14 -1 10 1 17 5 16 20 -2 31 4 25 14 -5 7 -3 8 5 3 8 -4 24 1 39 12
15 10 50 30 77 42 41 19 55 22 78 13 23 -9 27 -8 27 7 0 19 8 31 21 31 4 0 9
-32 11 -71z m-1229 -393 c48 -13 120 -29 160 -36 127 -20 147 -35 147 -110 0
-30 -6 -47 -25 -65 -32 -33 -77 -32 -215 1 l-107 25 -19 92 c-19 87 -21 92
-47 95 -29 4 -28 22 1 22 9 0 57 -11 105 -24z m865 -114 c11 -36 -130 -123
-220 -136 -42 -6 -48 -5 -48 11 0 10 7 28 15 41 22 30 102 75 121 68 8 -3 13
-2 9 3 -8 13 44 30 84 28 19 -1 36 -8 39 -15z"/>
<path d="M7292 2782 l-22 -3 20 -26 c11 -14 20 -31 20 -38 0 -9 13 -11 45 -7
l45 5 0 -49 c0 -68 -14 -85 -28 -36 -23 78 -65 76 -44 -2 8 -26 7 -39 -4 -53
-8 -11 -13 -13 -14 -5 0 6 -4 12 -10 12 -5 0 -7 -7 -4 -15 4 -9 0 -15 -10 -15
-9 0 -16 -4 -16 -10 0 -5 7 -7 15 -4 25 10 17 -10 -33 -87 -45 -68 -97 -127
-147 -163 -11 -9 -15 -16 -9 -16 14 0 94 57 116 84 9 12 41 65 70 118 29 54
56 98 59 98 4 0 10 -19 14 -42 4 -24 12 -61 19 -82 l11 -39 13 27 c7 15 8 24
2 21 -5 -3 -10 3 -10 14 0 10 -4 21 -8 23 -8 3 -53 162 -52 183 2 30 52 -98
63 -160 2 -11 7 28 11 87 7 92 6 110 -9 136 -19 31 -63 50 -103 44z"/>
<path d="M3518 2657 c3 -12 16 -38 29 -57 30 -46 29 -51 -9 -43 -19 4 -47 21
-66 42 -18 20 -29 27 -23 16 5 -11 24 -33 41 -50 17 -16 36 -39 42 -49 9 -17
7 -17 -21 3 -35 25 -40 18 -14 -19 15 -21 10 -19 -31 10 -27 19 -55 44 -62 55
-8 11 -14 15 -14 10 0 -6 14 -28 30 -49 17 -22 28 -41 26 -44 -3 -2 -32 13
-65 33 -34 21 -64 35 -68 31 -4 -3 -17 4 -30 16 -19 18 -23 19 -23 5 0 -9 5
-17 11 -17 6 0 29 -16 50 -35 37 -34 38 -35 18 -49 -15 -10 -17 -15 -7 -20 7
-3 4 -4 -8 -1 -13 3 -28 -2 -40 -16 -29 -33 -55 -44 -65 -28 -7 11 -9 11 -9 1
0 -23 31 -25 61 -3 18 14 37 20 49 16 11 -3 22 0 27 9 4 8 24 19 43 25 l35 11
-45 -5 c-43 -4 -44 -4 -23 11 l23 16 -26 20 c-42 34 -18 33 28 -1 23 -17 48
-31 56 -31 11 0 12 -12 6 -62 -10 -81 -11 -66 27 -259 l33 -166 47 57 c52 62
151 150 168 150 6 0 11 4 11 9 0 5 35 26 78 47 92 45 89 43 76 52 -5 4 -18 27
-27 52 -38 100 -83 143 -228 220 -81 42 -126 80 -79 65 24 -7 24 -7 5 9 -20
15 -20 15 4 16 31 0 25 5 -15 13 -29 6 -31 4 -26 -16z"/>
<path d="M6816 2435 c4 -16 8 -50 8 -74 l1 -43 -50 6 c-27 3 -62 6 -77 6 -20
0 -28 5 -28 18 -1 16 -1 16 -11 0 -7 -12 -22 -18 -47 -18 -51 0 -82 -10 -82
-25 0 -8 -8 -21 -17 -31 -17 -16 -15 -17 22 -10 22 4 54 9 70 12 23 4 16 -3
-30 -28 l-60 -33 0 -165 c0 -143 3 -170 19 -204 24 -48 89 -96 186 -137 110
-47 109 -52 -4 -45 l-98 6 44 -40 c176 -155 255 -202 382 -231 31 -7 56 -16
56 -21 0 -5 -25 -20 -55 -34 -51 -24 -56 -24 -84 -10 -35 18 -184 136 -356
280 -66 56 -127 107 -136 114 -15 11 -15 7 -2 -49 8 -34 13 -65 11 -70 -2 -5
-34 34 -73 85 -38 52 -71 93 -71 92 -1 0 4 -86 12 -191 7 -104 12 -213 11
-242 l-2 -52 -22 22 c-15 15 -25 43 -32 87 -18 116 -41 361 -41 436 0 69 2 74
29 93 15 11 31 18 35 14 3 -3 6 7 5 23 0 16 -3 23 -6 16 -6 -15 -43 59 -43 87
0 9 -11 27 -25 39 l-25 24 20 -44 c10 -24 24 -65 30 -91 11 -53 13 -49 -65
-145 -17 -20 -30 -46 -30 -57 0 -11 -28 -54 -63 -95 -36 -41 -69 -85 -75 -97
-11 -24 -41 -31 -53 -12 -4 7 -19 8 -38 4 -17 -3 -39 -8 -48 -10 -30 -6 -21
28 37 142 41 81 52 110 43 120 -7 9 -9 38 -5 81 l5 67 -19 -60 c-10 -33 -19
-77 -19 -97 0 -28 -4 -36 -14 -32 -8 3 -21 -5 -30 -18 l-16 -22 0 28 c0 41 25
133 60 217 16 41 30 78 30 83 0 19 -66 -54 -67 -75 -1 -12 -9 -49 -17 -83 -8
-33 -17 -83 -21 -111 -10 -88 -27 -210 -28 -211 -1 -1 -16 -4 -34 -7 -30 -6
-32 -4 -36 26 -4 31 -4 31 -5 -5 -2 -36 -4 -38 -36 -38 l-35 0 6 58 c3 31 3
55 1 52 -3 -3 -8 -36 -12 -75 -3 -38 -3 -64 0 -57 3 6 20 12 37 12 l31 0 -32
-23 -31 -24 60 -28 c51 -25 62 -27 71 -15 8 13 9 12 5 -1 -4 -13 14 -25 78
-54 46 -20 90 -44 98 -54 19 -21 56 -110 122 -291 180 -495 263 -702 336 -836
56 -102 53 -125 -21 -128 -24 -2 -49 -12 -69 -28 -17 -15 -43 -29 -58 -33 -16
-4 -41 -22 -56 -41 l-29 -34 39 0 c31 0 42 5 49 21 10 21 53 41 128 60 30 8
44 6 62 -6 22 -14 29 -12 25 9 -1 5 6 6 15 2 14 -6 16 -1 12 37 -5 38 -3 43
13 42 35 -2 79 -55 79 -94 1 -41 21 -74 44 -69 14 3 14 6 0 35 -13 27 -14 35
-2 57 l13 26 50 -36 c112 -80 127 -84 302 -83 180 0 181 -5 -17 75 -63 26
-119 50 -124 55 -10 9 122 2 244 -12 126 -14 180 -33 232 -79 l46 -40 126 0
c147 0 143 -5 94 105 -29 64 -36 73 -58 71 -23 -1 -25 2 -25 44 -1 83 -138
303 -227 362 -38 26 -50 29 -109 26 -37 -2 -65 -5 -63 -7 5 -5 -95 -42 -118
-44 -10 -1 -18 -5 -18 -10 0 -4 -4 -6 -9 -3 -6 4 -191 -109 -191 -117 0 -1 57
0 126 1 164 5 276 -10 326 -43 21 -14 56 -48 78 -76 22 -28 40 -46 40 -40 0 6
5 11 10 11 6 0 10 -15 11 -32 0 -18 3 -26 6 -18 6 16 38 50 48 50 3 0 5 -24 5
-54 0 -47 -2 -53 -20 -52 -12 0 -24 7 -29 14 -7 11 -9 11 -14 -1 -7 -18 -28
-17 -51 2 -9 7 -16 9 -16 3 0 -20 -35 -23 -50 -4 -12 14 -66 30 -215 61 -298
63 -469 124 -538 189 -44 42 -67 134 -67 266 0 61 5 131 10 156 6 25 12 55 15
67 5 23 45 56 80 67 16 5 21 1 22 -17 4 -49 15 -107 21 -111 5 -3 16 19 26 47
23 67 32 77 67 77 28 0 29 -2 30 -47 0 -27 4 -68 8 -93 l7 -45 23 67 c12 37
32 79 43 94 20 25 25 26 81 21 41 -4 66 -12 80 -25 20 -21 56 -111 58 -147 1
-23 14 29 24 98 6 44 8 47 35 47 24 0 33 -7 49 -37 11 -21 20 -34 21 -30 0 4
-8 22 -17 40 -14 26 -18 57 -18 159 l0 126 43 21 c37 19 42 24 42 56 0 29 6
39 35 57 22 14 38 34 42 50 5 26 7 26 62 21 33 -3 64 -13 76 -24 21 -19 168
-59 217 -59 15 0 36 5 46 11 14 9 28 4 71 -22 45 -28 64 -34 116 -35 50 -1 79
-9 153 -43 75 -35 95 -40 112 -31 22 12 27 49 8 71 -7 8 -29 27 -48 44 -29 24
-27 21 8 -16 84 -89 35 -114 -98 -49 -66 32 -95 40 -138 40 -41 0 -68 7 -111
29 -31 17 -74 35 -96 40 -67 18 -103 46 -111 86 -10 57 2 105 37 141 l32 33
39 -26 c30 -21 58 -28 126 -34 102 -9 134 -17 129 -33 -5 -14 -63 -35 -102
-36 -57 -1 -59 -17 -3 -24 56 -8 56 -6 1 -44 -10 -7 2 -2 27 10 25 12 71 27
103 34 l57 11 2 -41 1 -41 6 42 c5 34 13 47 48 72 46 33 104 60 143 67 14 2
36 7 50 10 14 3 36 8 50 10 36 7 92 25 88 30 -2 2 -24 -3 -49 -10 -47 -15 -62
-12 -72 14 -4 10 -6 8 -6 -7 -1 -13 -2 -23 -4 -23 -1 0 -17 -4 -35 -9 -29 -9
-34 -7 -42 12 l-9 22 0 -22 c-1 -16 -11 -27 -37 -38 -33 -14 -38 -14 -48 0
-10 14 -15 14 -41 2 -23 -11 -49 -12 -110 -6 -44 4 -116 11 -160 14 -76 7
-145 34 -145 58 0 5 13 39 30 77 32 73 55 162 47 183 -3 6 -6 0 -6 -15 -1 -33
-15 -35 -61 -7 -24 15 -30 17 -21 5 12 -14 9 -16 -28 -16 -45 0 -105 -25 -96
-40 3 -5 0 -12 -6 -16 -8 -5 -9 -3 -4 6 5 8 3 11 -4 9 -7 -3 -13 -9 -13 -14 0
-6 -14 -26 -32 -46 -17 -19 -37 -44 -44 -55 -11 -16 -11 -15 -1 6 6 14 25 40
42 58 17 17 26 32 21 32 -18 0 -52 -43 -75 -95 -30 -67 -38 -198 -15 -243 9
-17 16 -34 16 -38 0 -3 -26 -5 -58 -2 -85 6 -140 47 -195 146 -37 68 -42 74
-45 50 -4 -34 -10 -34 -72 -3 -78 40 -118 80 -135 138 -20 67 -19 95 5 135 28
46 25 52 -6 11 -22 -29 -25 -42 -22 -91 4 -59 -6 -74 -31 -44 -17 20 -36 130
-26 152 5 11 8 22 7 26 -1 4 4 5 11 3 6 -2 27 9 45 24 25 22 30 30 18 34 -8 3
-20 -1 -26 -9 -7 -8 -17 -14 -22 -14 -12 0 65 87 109 124 l30 26 27 -25 c23
-21 30 -23 68 -15 l43 9 -40 -3 c-32 -3 -43 1 -57 19 -16 21 -16 24 -2 29 50
19 114 -6 114 -45 0 -8 15 -20 33 -27 34 -12 91 -61 108 -93 8 -15 4 -19 -28
-25 -67 -13 -137 -8 -187 15 -27 11 -51 21 -55 21 -13 -1 46 -30 93 -46 44
-15 59 -15 132 -4 63 10 80 16 70 24 -7 6 -25 33 -40 59 -15 27 -34 51 -42 54
-8 3 -24 22 -34 43 -38 75 -154 159 -241 175 -42 8 -126 76 -146 119 l-14 31
7 -30z m104 -139 c-70 -16 -89 -26 -133 -75 -52 -58 -85 -128 -99 -217 l-13
-78 -33 72 c-45 96 -49 129 -24 179 35 67 90 107 177 126 11 3 56 5 100 5 l80
0 -55 -12z m-681 -629 c38 -67 41 -119 9 -156 -20 -22 -20 -23 -2 -8 11 9 23
17 26 17 3 0 9 -30 13 -67 4 -38 13 -84 19 -104 l13 -36 -60 -11 c-44 -8 -65
-8 -81 0 -15 8 -17 13 -7 16 8 3 1 10 -18 18 -18 8 -30 18 -27 23 4 5 2 12 -4
16 -5 3 -10 20 -10 36 0 20 -4 29 -12 27 -21 -7 -39 -51 -33 -81 6 -35 -5 -29
-29 17 -16 31 -17 39 -6 67 8 18 13 54 11 80 -3 63 16 102 92 185 60 65 61 66
68 41 4 -14 21 -51 38 -80z m-8 -404 c1 -17 2 -17 6 0 3 12 14 17 38 17 36 0
45 -12 45 -61 0 -26 -3 -29 -34 -29 -28 0 -35 4 -38 23 -3 17 -5 15 -9 -12
l-6 -33 49 6 c43 6 48 5 48 -12 0 -11 3 -33 6 -49 5 -25 2 -31 -14 -35 -18 -5
-22 0 -28 36 -4 22 -9 33 -12 24 -2 -10 -7 -18 -12 -18 -5 0 -10 -12 -12 -27
-2 -22 -9 -29 -29 -31 -31 -4 -44 11 -53 61 -7 35 -6 37 21 38 l28 2 -26 4
c-28 4 -39 25 -39 75 0 21 5 27 28 31 15 2 30 5 35 6 4 0 8 -7 8 -16z m149
-503 c-4 -96 -7 -162 -8 -147 -1 16 -7 27 -14 26 -7 -1 -19 -1 -25 0 -15 1
-43 64 -43 95 0 35 85 219 95 204 0 -2 -2 -82 -5 -178z"/>
<path d="M1106 1134 c-18 -72 -125 -253 -190 -322 -60 -65 -145 -100 -207 -87
-23 5 -36 17 -51 49 -16 34 -18 36 -13 11 12 -59 35 -70 136 -67 61 1 103 8
129 20 49 22 98 88 106 144 8 52 38 113 59 121 8 4 14 10 13 14 -4 12 24 93
32 93 4 0 20 -12 35 -27 l28 -28 -29 52 c-16 29 -32 53 -35 53 -4 0 -10 -12
-13 -26z"/>
</g>
</svg>
